<svg width="24" height="24" viewBox="0 0 24 24" fill="none" xmlns="http://www.w3.org/2000/svg">
<path d="M22.4898 0.5H0.938776C-0.683674 0.5 -2 1.65179 -2 3.07143V21.9286C-2 23.3482 -0.683674 24.5 0.938776 24.5H22.4898C24.1122 24.5 25.4286 23.3482 25.4286 21.9286V3.07143C25.4286 1.65179 24.1122 0.5 22.4898 0.5ZM19.4959 9.00714C19.5082 9.15714 19.5082 9.3125 19.5082 9.4625C19.5082 14.1071 15.4673 19.4589 8.08367 19.4589C5.80612 19.4589 3.69388 18.8804 1.91837 17.8839C2.24286 17.9161 2.5551 17.9268 2.88571 17.9268C4.76531 17.9268 6.49184 17.3696 7.86939 16.4268C6.10612 16.3946 4.62449 15.3821 4.11633 13.9893C4.73469 14.0696 5.29184 14.0696 5.92857 13.925C4.09184 13.5982 2.71429 12.1839 2.71429 10.475V10.4321C3.24694 10.6946 3.87143 10.8554 4.52653 10.8768C3.97577 10.5562 3.52427 10.1214 3.21233 9.61098C2.90038 9.10059 2.73769 8.53057 2.73878 7.95179C2.73878 7.29821 2.93469 6.69821 3.28367 6.17857C5.26122 8.31071 8.23061 9.70357 11.5612 9.85357C10.9918 7.46964 13.0306 5.53571 15.4796 5.53571C16.6367 5.53571 17.6776 5.95893 18.4122 6.64464C19.3184 6.49464 20.1878 6.2 20.9592 5.79821C20.6592 6.6125 20.0286 7.29821 19.1959 7.73214C20.0041 7.65714 20.7878 7.45893 21.5102 7.18571C20.9653 7.8875 20.2796 8.50893 19.4959 9.00714Z" fill="black"/>
</svg>
